<?xml version="1.0" standalone="no"?>
<!DOCTYPE svg PUBLIC "-//W3C//DTD SVG 20010904//EN"
 "http://www.w3.org/TR/2001/REC-SVG-20010904/DTD/svg10.dtd">
<svg version="1.0" xmlns="http://www.w3.org/2000/svg"
 width="832.000000pt" height="832.000000pt" viewBox="0 0 832.000000 832.000000"
 preserveAspectRatio="xMidYMid meet">
<metadata>
Created by potrace 1.14, written by Peter Selinger 2001-2017
</metadata>
<g transform="translate(0.000000,832.000000) scale(0.100000,-0.100000)"
fill="#000000" stroke="none">
<path d="M6543 8189 c-81 -66 -157 -128 -168 -137 -11 -10 -54 -44 -95 -77
-41 -33 -84 -68 -95 -78 -11 -10 -33 -28 -49 -40 -15 -12 -42 -34 -60 -48 -30
-25 -238 -195 -321 -262 -48 -39 -172 -141 -201 -165 -11 -9 -35 -28 -53 -42
-18 -14 -49 -40 -68 -57 -20 -18 -39 -33 -42 -33 -3 0 -26 -18 -51 -40 -51
-45 -49 -43 -110 -90 -24 -19 -54 -44 -66 -55 -12 -11 -36 -31 -54 -45 -18
-14 -47 -37 -64 -51 -53 -44 -202 -166 -241 -197 -71 -57 -171 -138 -175 -143
-3 -3 -75 -61 -160 -130 -85 -68 -165 -133 -176 -144 -12 -11 -50 -42 -85 -70
-35 -27 -69 -54 -75 -60 -6 -5 -28 -23 -50 -40 -21 -16 -48 -39 -60 -50 -12
-11 -32 -27 -44 -35 -13 -8 -30 -22 -39 -30 -9 -9 -41 -36 -71 -60 -30 -25
-56 -48 -58 -52 -2 -5 -10 -8 -17 -8 -7 0 -15 -4 -17 -9 -3 -8 -77 -71 -174
-146 -21 -16 -48 -39 -60 -50 -13 -11 -39 -33 -60 -50 -20 -16 -54 -43 -74
-60 -20 -16 -54 -43 -75 -60 -20 -16 -42 -35 -49 -40 -6 -6 -83 -69 -171 -140
-88 -71 -162 -132 -165 -135 -4 -4 -114 -93 -174 -140 -10 -8 -29 -25 -42 -37
-13 -13 -27 -23 -33 -23 -5 0 -11 -3 -13 -8 -1 -4 -57 -52 -123 -106 -66 -53
-129 -105 -140 -115 -11 -9 -76 -61 -145 -116 -68 -55 -131 -107 -140 -115 -9
-8 -31 -26 -49 -40 -18 -14 -41 -32 -50 -40 -9 -8 -51 -42 -91 -75 -246 -200
-340 -278 -340 -286 0 -4 46 -45 103 -91 56 -45 104 -85 107 -88 4 -4 224
-182 278 -225 7 -5 21 -17 30 -26 9 -8 53 -44 97 -79 44 -36 85 -69 92 -75 7
-5 18 -14 25 -20 23 -18 122 -99 138 -112 8 -7 35 -29 60 -49 56 -45 129 -106
144 -119 6 -5 45 -37 86 -70 41 -32 80 -64 87 -70 7 -5 18 -14 25 -20 7 -5 29
-23 48 -40 20 -16 53 -43 75 -60 21 -16 46 -37 55 -45 8 -8 31 -27 50 -41 19
-15 46 -36 60 -48 14 -11 41 -34 60 -50 19 -17 76 -63 126 -103 160 -129 299
-242 310 -253 6 -5 26 -21 44 -35 19 -14 41 -32 50 -40 9 -8 63 -53 121 -99
57 -46 109 -89 114 -96 6 -6 15 -14 21 -16 6 -2 33 -23 60 -46 27 -23 90 -74
139 -114 50 -40 92 -75 95 -78 3 -4 25 -22 50 -41 25 -19 47 -37 50 -40 3 -3
41 -35 85 -70 44 -35 87 -70 95 -77 8 -7 33 -28 56 -46 108 -87 130 -104 163
-133 20 -16 72 -59 116 -94 44 -36 82 -68 83 -72 2 -5 8 -8 12 -8 5 0 20 -10
33 -23 13 -12 32 -29 43 -37 10 -8 55 -44 99 -80 44 -36 88 -72 99 -80 10 -8
23 -20 30 -25 6 -6 92 -76 191 -157 99 -80 190 -154 201 -164 12 -11 36 -30
55 -44 18 -14 40 -32 49 -40 9 -8 32 -27 52 -42 20 -15 42 -33 50 -40 7 -8 33
-29 58 -48 25 -19 50 -39 56 -45 6 -5 25 -21 43 -35 18 -14 43 -34 55 -45 11
-11 30 -27 42 -35 19 -14 103 -82 128 -105 6 -5 27 -22 46 -36 19 -15 46 -37
60 -49 14 -12 38 -31 53 -43 15 -12 38 -31 51 -42 13 -11 43 -36 67 -55 24
-19 51 -42 60 -50 8 -8 25 -21 37 -28 l22 -12 0 4150 c0 2282 -2 4150 -4 4150
-2 0 -71 -54 -153 -121z"/>
</g>
</svg>
