<svg width="24" height="23" viewBox="0 0 24 23" fill="none" xmlns="http://www.w3.org/2000/svg">
<path d="M12 1.91675C8.13 1.91675 5 4.91633 5 8.62508C5 13.6563 12 21.0834 12 21.0834C12 21.0834 19 13.6563 19 8.62508C19 4.91633 15.87 1.91675 12 1.91675ZM7 8.62508C7 5.98008 9.24 3.83341 12 3.83341C14.76 3.83341 17 5.98008 17 8.62508C17 11.3851 14.12 15.5155 12 18.0934C9.92 15.5347 7 11.3563 7 8.62508Z" fill="white"/>
<path d="M12 11.0209C13.3807 11.0209 14.5 9.94826 14.5 8.62508C14.5 7.3019 13.3807 6.22925 12 6.22925C10.6193 6.22925 9.5 7.3019 9.5 8.62508C9.5 9.94826 10.6193 11.0209 12 11.0209Z" fill="white"/>
</svg>
