<svg width="217" height="56" viewBox="0 0 217 56" fill="none" xmlns="http://www.w3.org/2000/svg">
<path d="M2.394 14.22H6.688V28.736L13.756 14.22H17.746L11.666 27.786L18.734 45H14.554L8.664 30.56L6.688 34.132V45H2.394V14.22ZM29.686 45.342C26.6713 45.342 24.5053 44.4933 23.188 42.796C21.896 41.0733 21.25 38.5907 21.25 35.348V23.682C21.25 20.49 21.9087 18.0707 23.226 16.424C24.5433 14.7773 26.6967 13.954 29.686 13.954C32.6753 13.954 34.816 14.79 36.108 16.462C37.4253 18.1087 38.084 20.5153 38.084 23.682V35.386C38.084 38.578 37.4253 41.0353 36.108 42.758C34.7907 44.4807 32.65 45.342 29.686 45.342ZM29.686 41.96C31.282 41.96 32.3587 41.4913 32.916 40.554C33.4733 39.6167 33.752 38.198 33.752 36.298V22.808C33.752 20.9333 33.4733 19.5527 32.916 18.666C32.3587 17.754 31.282 17.298 29.686 17.298C28.0647 17.298 26.9753 17.754 26.418 18.666C25.8607 19.5527 25.582 20.9333 25.582 22.808V36.298C25.582 38.198 25.8607 39.6167 26.418 40.554C26.9753 41.4913 28.0647 41.96 29.686 41.96ZM43.0644 14.22H45.9904L54.7304 34.664V14.22H58.3024V45H55.5664L46.7124 23.986V45H43.0644V14.22ZM71.1586 45.342C68.5746 45.342 66.5986 44.544 65.2306 42.948C63.8879 41.352 63.1406 39.1607 62.9886 36.374L66.7886 35.348C66.9152 37.324 67.2952 38.92 67.9286 40.136C68.5872 41.352 69.6639 41.96 71.1586 41.96C72.2732 41.96 73.1092 41.656 73.6666 41.048C74.2492 40.4147 74.5406 39.5153 74.5406 38.35C74.5406 37.0833 74.2746 36.032 73.7426 35.196C73.2106 34.36 72.3619 33.4353 71.1966 32.422L66.0286 27.862C64.9899 26.95 64.2299 25.9747 63.7486 24.936C63.2926 23.872 63.0646 22.58 63.0646 21.06C63.0646 18.8053 63.7106 17.0573 65.0026 15.816C66.2946 14.5747 68.0552 13.954 70.2846 13.954C72.7166 13.954 74.5532 14.6 75.7946 15.892C77.0359 17.184 77.7832 19.1853 78.0366 21.896L74.3886 22.884C74.2619 21.0853 73.9072 19.7047 73.3246 18.742C72.7672 17.754 71.7539 17.26 70.2846 17.26C69.1952 17.26 68.3592 17.5513 67.7766 18.134C67.1939 18.6913 66.9026 19.5273 66.9026 20.642C66.9026 21.554 67.0546 22.3267 67.3586 22.96C67.6626 23.568 68.1819 24.1887 68.9166 24.822L74.1226 29.382C75.4652 30.5727 76.5292 31.8647 77.3146 33.258C78.1252 34.6513 78.5306 36.2347 78.5306 38.008C78.5306 40.2627 77.8466 42.0487 76.4786 43.366C75.1106 44.6833 73.3372 45.342 71.1586 45.342ZM86.0035 17.412H80.7975V14.22H95.3515V17.412H90.2975V45H86.0035V17.412ZM99.0788 14.22H105.273C108.389 14.22 110.669 14.866 112.113 16.158C113.582 17.4247 114.317 19.502 114.317 22.39C114.317 26.342 113.05 28.736 110.517 29.572L114.887 45H110.745L106.717 30.56H103.373V45H99.0788V14.22ZM105.007 27.482C106.856 27.482 108.173 27.1147 108.959 26.38C109.769 25.6453 110.175 24.3153 110.175 22.39C110.175 21.1233 110.035 20.1353 109.757 19.426C109.478 18.6913 108.984 18.1593 108.275 17.83C107.565 17.4753 106.565 17.298 105.273 17.298H103.373V27.482H105.007ZM127.486 45.342C125.333 45.342 123.648 44.9113 122.432 44.05C121.241 43.1887 120.418 41.9853 119.962 40.44C119.506 38.8947 119.278 36.9567 119.278 34.626V14.22H123.382V34.816C123.382 37.1467 123.648 38.92 124.18 40.136C124.737 41.352 125.839 41.96 127.486 41.96C129.133 41.96 130.222 41.352 130.754 40.136C131.311 38.92 131.59 37.1467 131.59 34.816V14.22H135.656V34.626C135.656 36.9567 135.428 38.8947 134.972 40.44C134.516 41.9853 133.693 43.1887 132.502 44.05C131.311 44.9113 129.639 45.342 127.486 45.342Z" fill="white"/>
<path d="M164.776 17.412H159.57V14.22H174.124V17.412H169.07V45H164.776V17.412ZM185.717 45.342C182.703 45.342 180.537 44.4933 179.219 42.796C177.927 41.0733 177.281 38.5907 177.281 35.348V23.682C177.281 20.49 177.94 18.0707 179.257 16.424C180.575 14.7773 182.728 13.954 185.717 13.954C188.707 13.954 190.847 14.79 192.139 16.462C193.457 18.1087 194.115 20.5153 194.115 23.682V35.386C194.115 38.578 193.457 41.0353 192.139 42.758C190.822 44.4807 188.681 45.342 185.717 45.342ZM185.717 41.96C187.313 41.96 188.39 41.4913 188.947 40.554C189.505 39.6167 189.783 38.198 189.783 36.298V22.808C189.783 20.9333 189.505 19.5527 188.947 18.666C188.39 17.754 187.313 17.298 185.717 17.298C184.096 17.298 183.007 17.754 182.449 18.666C181.892 19.5527 181.613 20.9333 181.613 22.808V36.298C181.613 38.198 181.892 39.6167 182.449 40.554C183.007 41.4913 184.096 41.96 185.717 41.96ZM199.096 14.22H205.29C208.406 14.22 210.686 14.866 212.13 16.158C213.599 17.4247 214.334 19.502 214.334 22.39C214.334 26.342 213.067 28.736 210.534 29.572L214.904 45H210.762L206.734 30.56H203.39V45H199.096V14.22ZM205.024 27.482C206.873 27.482 208.19 27.1147 208.976 26.38C209.786 25.6453 210.192 24.3153 210.192 22.39C210.192 21.1233 210.052 20.1353 209.774 19.426C209.495 18.6913 209.001 18.1593 208.292 17.83C207.582 17.4753 206.582 17.298 205.29 17.298H203.39V27.482H205.024Z" fill="white"/>
<path d="M140 28.5L155.75 13.3446V43.6554L140 28.5Z" fill="#DF7E62"/>
</svg>
