<svg width="217" height="56" fill="none" xmlns="http://www.w3.org/2000/svg"><path d="M2.394 14.22h4.294v14.516l7.068-14.516h3.99l-6.08 13.566L18.734 45h-4.18l-5.89-14.44-1.976 3.572V45H2.394V14.22zm27.292 31.122c-3.015 0-5.18-.849-6.498-2.546-1.292-1.723-1.938-4.205-1.938-7.448V23.682c0-3.192.659-5.611 1.976-7.258 1.317-1.647 3.47-2.47 6.46-2.47 2.99 0 5.13.836 6.422 2.508 1.317 1.647 1.976 4.053 1.976 7.22v11.704c0 3.192-.659 5.65-1.976 7.372-1.317 1.723-3.458 2.584-6.422 2.584zm0-3.382c1.596 0 2.673-.469 3.23-1.406.557-.937.836-2.356.836-4.256v-13.49c0-1.875-.279-3.255-.836-4.142-.557-.912-1.634-1.368-3.23-1.368-1.621 0-2.71.456-3.268 1.368-.557.887-.836 2.267-.836 4.142v13.49c0 1.9.279 3.319.836 4.256.557.937 1.647 1.406 3.268 1.406zm13.378-27.74h2.926l8.74 20.444V14.22h3.572V45h-2.736l-8.854-21.014V45h-3.648V14.22zM71.16 45.342c-2.584 0-4.56-.798-5.928-2.394-1.343-1.596-2.09-3.787-2.242-6.574l3.8-1.026c.126 1.976.506 3.572 1.14 4.788.658 1.216 1.735 1.824 3.23 1.824 1.114 0 1.95-.304 2.508-.912.582-.633.874-1.533.874-2.698 0-1.267-.266-2.318-.798-3.154-.532-.836-1.381-1.76-2.546-2.774l-5.168-4.56c-1.04-.912-1.8-1.887-2.28-2.926-.456-1.064-.684-2.356-.684-3.876 0-2.255.646-4.003 1.938-5.244 1.292-1.241 3.052-1.862 5.282-1.862 2.432 0 4.268.646 5.51 1.938 1.24 1.292 1.988 3.293 2.242 6.004l-3.648.988c-.127-1.799-.482-3.18-1.064-4.142-.558-.988-1.571-1.482-3.04-1.482-1.09 0-1.926.291-2.508.874-.583.557-.874 1.393-.874 2.508 0 .912.152 1.685.456 2.318.304.608.823 1.229 1.558 1.862l5.206 4.56c1.342 1.19 2.406 2.483 3.192 3.876.81 1.393 1.216 2.977 1.216 4.75 0 2.255-.684 4.04-2.052 5.358-1.368 1.317-3.142 1.976-5.32 1.976zm14.844-27.93h-5.206V14.22h14.555v3.192h-5.055V45h-4.293V17.412zM99.08 14.22h6.194c3.116 0 5.396.646 6.84 1.938 1.469 1.267 2.204 3.344 2.204 6.232 0 3.952-1.267 6.346-3.8 7.182L114.887 45h-4.142l-4.028-14.44h-3.344V45h-4.294V14.22zm5.928 13.262c1.849 0 3.166-.367 3.952-1.102.81-.735 1.216-2.065 1.216-3.99 0-1.267-.14-2.255-.418-2.964a2.786 2.786 0 00-1.482-1.596c-.71-.355-1.71-.532-3.002-.532h-1.9v10.184h1.634zm22.479 17.86c-2.153 0-3.838-.43-5.054-1.292-1.191-.861-2.014-2.065-2.47-3.61-.456-1.545-.684-3.483-.684-5.814V14.22h4.104v20.596c0 2.33.266 4.104.798 5.32.557 1.216 1.659 1.824 3.306 1.824s2.736-.608 3.268-1.824c.557-1.216.836-2.99.836-5.32V14.22h4.066v20.406c0 2.33-.228 4.269-.684 5.814-.456 1.545-1.279 2.749-2.47 3.61-1.191.861-2.863 1.292-5.016 1.292zm37.289-27.93h-5.206V14.22h14.554v3.192h-5.054V45h-4.294V17.412zm20.941 27.93c-3.014 0-5.18-.849-6.498-2.546-1.292-1.723-1.938-4.205-1.938-7.448V23.682c0-3.192.659-5.611 1.976-7.258 1.318-1.647 3.471-2.47 6.46-2.47 2.99 0 5.13.836 6.422 2.508 1.318 1.647 1.976 4.053 1.976 7.22v11.704c0 3.192-.658 5.65-1.976 7.372-1.317 1.723-3.458 2.584-6.422 2.584zm0-3.382c1.596 0 2.673-.469 3.23-1.406.558-.937.836-2.356.836-4.256v-13.49c0-1.875-.278-3.255-.836-4.142-.557-.912-1.634-1.368-3.23-1.368-1.621 0-2.71.456-3.268 1.368-.557.887-.836 2.267-.836 4.142v13.49c0 1.9.279 3.319.836 4.256.558.937 1.647 1.406 3.268 1.406zm13.379-27.74h6.194c3.116 0 5.396.646 6.84 1.938 1.469 1.267 2.204 3.344 2.204 6.232 0 3.952-1.267 6.346-3.8 7.182L214.904 45h-4.142l-4.028-14.44h-3.344V45h-4.294V14.22zm5.928 13.262c1.849 0 3.166-.367 3.952-1.102.81-.735 1.216-2.065 1.216-3.99 0-1.267-.14-2.255-.418-2.964a2.786 2.786 0 00-1.482-1.596c-.71-.355-1.71-.532-3.002-.532h-1.9v10.184h1.634z" fill="#fff"/><path d="M140 28.5l15.75-15.155v30.31L140 28.5z" fill="#DF7E62"/></svg>